<?xml version="1.0" encoding="utf-8"?>
<!-- Generator: Adobe Illustrator 26.0.1, SVG Export Plug-In . SVG Version: 6.00 Build 0)  -->
<svg version="1.1" id="Layer_1" xmlns="http://www.w3.org/2000/svg" xmlns:xlink="http://www.w3.org/1999/xlink" x="0px" y="0px"
	 viewBox="0 0 55.7 50" style="enable-background:new 0 0 55.7 50;" xml:space="preserve">
<style type="text/css">
	.st0{fill:url(#SVGID_1_);}
</style>
<linearGradient id="SVGID_1_" gradientUnits="userSpaceOnUse" x1="10.0003" y1="11.1058" x2="43.0055" y2="43.7703" gradientTransform="matrix(1 0 0 -1 0 52)">
	<stop  offset="0" style="stop-color:#F6E841"/>
	<stop  offset="0.5112" style="stop-color:#DE3F96"/>
	<stop  offset="1" style="stop-color:#7650A1"/>
</linearGradient>
<path class="st0" d="M37.86,2.01c0.64-0.9,1.81-1.24,2.83-0.84c1.02,0.4,1.64,1.45,1.5,2.55L40.15,19h9.12c0.55,0,1.14,0,1.61,0.04
	c0.39,0.04,1.06,0.12,1.71,0.52l0.28,0.19l0.3,0.26c0.67,0.64,1.06,1.52,1.1,2.46c0.03,0.92-0.35,1.64-0.58,2.03
	c-0.24,0.41-0.58,0.89-0.9,1.34L36.96,47.99c-0.64,0.9-1.81,1.24-2.83,0.84c-1.02-0.4-1.64-1.45-1.5-2.55L34.67,31h-9.12
	c-0.55,0-1.14,0-1.61-0.04c-0.45-0.04-1.26-0.15-1.98-0.71c-0.85-0.65-1.36-1.65-1.4-2.72c-0.03-0.92,0.35-1.64,0.58-2.03
	c0.24-0.41,0.58-0.89,0.9-1.34L37.86,2.01z M20.62,35.8c1.32,0,2.4,1.07,2.4,2.4c0,1.32-1.07,2.4-2.4,2.4H7.42
	c-1.32,0-2.4-1.07-2.4-2.4c0-1.32,1.07-2.4,2.4-2.4H20.62z M26.48,26.2h10.93c0.69,0,1.35,0.3,1.8,0.82
	c0.46,0.52,0.67,1.21,0.57,1.9l-1.13,8.43l9.68-13.55H37.41c-0.69,0-1.35-0.3-1.8-0.82c-0.46-0.52-0.67-1.21-0.57-1.9l1.12-8.44
	L26.48,26.2z M14.62,22.6c1.32,0,2.4,1.07,2.4,2.4c0,1.32-1.07,2.4-2.4,2.4H3.83c-1.32,0-2.4-1.07-2.4-2.4c0-1.32,1.07-2.4,2.4-2.4
	H14.62z M20.62,9.41c1.32,0,2.4,1.07,2.4,2.4c0,1.32-1.07,2.4-2.4,2.4h-12c-1.32,0-2.4-1.07-2.4-2.4c0-1.32,1.07-2.4,2.4-2.4H20.62z
	"/>
</svg>
